<svg id="Layer_1" data-name="Layer 1" xmlns="http://www.w3.org/2000/svg" viewBox="0 0 1200 1200"><defs><style>.cls-1{fill:#fff;}.cls-2{fill:#231f20;}.cls-3{fill:#fbb040;}</style></defs><title>Artboard 8</title><rect class="cls-1" x="425.44" y="235.79" width="659.04" height="462.14"/><path class="cls-2" d="M1085,698.49H424.89V235.24H1085Zm-659-1.11h657.93v-461H426Z"/><rect class="cls-1" x="742.5" y="313.44" width="141.11" height="185.05"/><path class="cls-2" d="M884.17,499H742V312.89H884.17Zm-141.12-1.1h140V314h-140Z"/><polygon class="cls-2" points="742.86 448.08 742.14 447.23 813.17 386.95 845.44 434.58 883.28 405.53 883.95 406.4 845.18 436.17 812.95 388.6 742.86 448.08"/><circle class="cls-1" cx="784.86" cy="369.35" r="18.42"/><path class="cls-2" d="M784.86,388.33a19,19,0,1,1,19-19A19,19,0,0,1,784.86,388.33Zm0-36.85a17.87,17.87,0,1,0,17.87,17.87A17.89,17.89,0,0,0,784.86,351.48Z"/><rect class="cls-1" x="912.89" y="474.04" width="141.11" height="111.84"/><path class="cls-2" d="M1054.55,586.43H912.34V473.48h142.21Zm-141.11-1.1h140V474.59h-140Z"/><path class="cls-2" d="M1054.55,586.43H941.2l0-.57a92,92,0,0,1,112.9-85.93l.43.1Zm-112.2-1.1h111.09V500.91a90.8,90.8,0,0,0-111.09,84.42Z"/><path class="cls-2" d="M1060.44,923.71c-25.81-35.27-63.66-10.32-103.23.25s-43-6.63-43-6.63l85.41-85.5Z"/><path class="cls-2" d="M934.9,927.92c-7.71,0-12.57-1.68-15.59-3.56-4.83-3-5.63-6.77-5.66-6.93a.53.53,0,0,1,.15-.49l85.41-85.5a.55.55,0,0,1,.44-.16.56.56,0,0,1,.41.25l60.84,91.88a.55.55,0,0,1-.14.76.55.55,0,0,1-.76-.13c-20.13-27.5-48.19-17.77-77.9-7.47-8.05,2.8-16.38,5.69-24.75,7.92C948,927,940.66,927.92,934.9,927.92Zm-20.09-10.43a11.47,11.47,0,0,0,5.13,6c5.1,3.15,15.68,5.7,37.12,0,8.33-2.22,16.64-5.1,24.68-7.89,27.37-9.49,53.37-18.51,73.35,1.1L999.51,832.7Z"/><polygon class="cls-1" points="989.1 697.79 1017.25 971.66 984.9 971.66 1011.64 964.81 970.39 697.79 989.1 697.79"/><path class="cls-2" d="M1017.25,972.21H984.9a.55.55,0,0,1-.13-1.08l26.25-6.74L969.85,697.87a.54.54,0,0,1,.12-.44.57.57,0,0,1,.42-.19H989.1a.55.55,0,0,1,.55.49l28.15,273.88a.51.51,0,0,1-.14.42A.52.52,0,0,1,1017.25,972.21Zm-28-1.1h27.35l-28-272.77H971l41.15,266.38a.55.55,0,0,1-.41.62Z"/><polygon class="cls-1" points="979.37 697.79 976.09 971.66 943.74 971.66 970.48 964.81 960.67 697.79 979.37 697.79"/><path class="cls-2" d="M976.09,972.21H943.74a.55.55,0,0,1-.14-1.08l26.31-6.75-9.8-266.57a.58.58,0,0,1,.16-.4.54.54,0,0,1,.4-.17h18.7a.59.59,0,0,1,.4.16.58.58,0,0,1,.16.4l-3.29,273.87A.55.55,0,0,1,976.09,972.21Zm-28-1.1h27.42l3.27-272.77H961.24L971,964.78a.54.54,0,0,1-.41.56Z"/><path class="cls-2" d="M969,574.54s23.5-2,24.22,25,25.2,14.87,25,49.37c-.25,50.23-78.6,33.47-78.74-5.28-.12-29.22,18.59-14.18,14.4-39.8S969,574.54,969,574.54Z"/><path class="cls-2" d="M985.9,680.66h0c-22.13,0-46.83-15.23-46.92-37.06-.05-15,4.76-18.56,9-21.74,4-3,7.43-5.55,5.4-18C949.14,578,968.7,574,968.9,574H969c.4,0,9.82-.77,17,5.66,4.94,4.41,7.56,11.09,7.8,19.84.32,12.33,5.69,16.31,11.37,20.52,6.76,5,13.74,10.18,13.65,28.88C1018.7,672.32,1001.74,680.66,985.9,680.66ZM969.08,575.09c-1.1.22-18.63,4.1-14.62,28.62,2.14,13.08-1.73,16-5.82,19s-8.63,6.44-8.57,20.84c.08,21.18,24.21,36,45.81,36h0c19.83,0,31.71-11.47,31.81-30.68.08-18.13-6.67-23.14-13.2-28-5.91-4.38-11.49-8.51-11.83-21.38-.22-8.43-2.72-14.84-7.42-19C978.6,574.53,969.64,575.05,969.08,575.09Z"/><path class="cls-1" d="M956,631.38l-29.31,57.26L886.76,675l-4.32-12.87-2.89,10-21.14,3.37s7.2,16.33,26.91,8.89l32,23.31A22,22,0,0,0,945.22,706l21.06-19.57Z"/><path class="cls-2" d="M930.24,712.44A22.45,22.45,0,0,1,917,708.12L885.23,685c-19.75,7.28-27.26-9.12-27.33-9.29a.55.55,0,0,1,.42-.77l20.8-3.31L881.9,662a.57.57,0,0,1,.52-.4.6.6,0,0,1,.54.38l4.24,12.6L926.42,688l29.09-56.83a.54.54,0,0,1,.57-.29.55.55,0,0,1,.47.44l10.27,55.06a.54.54,0,0,1-.17.5l-21,19.58A22.53,22.53,0,0,1,930.24,712.44ZM885.32,683.8a.57.57,0,0,1,.33.11l32,23.32a21.49,21.49,0,0,0,27.24-1.62l20.83-19.37-9.92-53.16-28.58,55.81a.55.55,0,0,1-.67.27l-39.93-13.65a.52.52,0,0,1-.34-.35L882.48,664l-2.4,8.28a.55.55,0,0,1-.44.39l-20.41,3.25c1.58,3,8.94,14.34,25.89,7.94A.71.71,0,0,1,885.32,683.8Z"/><path class="cls-3" d="M948.09,703.18V657.92c0-1.49.06-3,.19-4.41,1.7-19.81,14.7-35.19,30.49-35.19,8.47,0,16.15,4.43,21.7,11.59a39.8,39.8,0,0,1,4.55,7.47,43.19,43.19,0,0,1,2.7,28.08L999,703.18l61.46,220.53s-30.11,4.31-66.24-23.36-80,17-80,17Z"/><path class="cls-2" d="M1055.93,924.48c-9.85,0-34.33-2.45-62.07-23.69-18.43-14.12-39-8.79-53-1.83a110.38,110.38,0,0,0-26.3,18.75.55.55,0,0,1-.94-.47l33.89-214.11V657.92c0-1.51.06-3,.19-4.46,1.75-20.35,15.09-35.7,31-35.7,8.37,0,16.23,4.2,22.14,11.82a40.33,40.33,0,0,1,4.61,7.57,43.75,43.75,0,0,1,2.73,28.43l-8.7,37.58L1061,923.57a.6.6,0,0,1-.07.45.56.56,0,0,1-.39.24A38.33,38.33,0,0,1,1055.93,924.48ZM967.88,890.8a43,43,0,0,1,26.66,9.11c32.69,25,60.69,23.72,65.19,23.32L998.45,703.32a.5.5,0,0,1,0-.27l8.74-37.72a42.7,42.7,0,0,0-2.66-27.71,39.55,39.55,0,0,0-4.48-7.37c-5.7-7.34-13.25-11.38-21.27-11.38-15.37,0-28.24,14.91-29.94,34.68-.12,1.43-.19,2.9-.19,4.37v45.34L915,915.78A112,112,0,0,1,940.4,898C950,893.19,959.24,890.8,967.88,890.8ZM948.09,703.18h0Z"/><path class="cls-1" d="M977.25,629.8l5.21-6.11-5.53-23.62L965,597.37l5.45,23.29-1,5.45A4.45,4.45,0,0,0,977.25,629.8Z"/><path class="cls-2" d="M973.91,631.94a5,5,0,0,1-2.2-.51,4.89,4.89,0,0,1-2.78-5.42l1-5.34-5.42-23.17a.56.56,0,0,1,.15-.52.54.54,0,0,1,.51-.15l11.91,2.7a.56.56,0,0,1,.42.42L983,623.57a.55.55,0,0,1-.12.48l-5.2,6.11A4.93,4.93,0,0,1,973.91,631.94Zm-8.15-33.84L971,620.53a.45.45,0,0,1,0,.23l-1,5.45a3.9,3.9,0,0,0,6.81,3.23h0l5-5.89-5.39-23Z"/><circle class="cls-1" cx="971.38" cy="595.81" r="17.46"/><path class="cls-2" d="M971.38,613.83a18,18,0,1,1,18-18A18,18,0,0,1,971.38,613.83Zm0-34.93a16.91,16.91,0,1,0,16.91,16.91A16.93,16.93,0,0,0,971.38,578.9Z"/><path class="cls-2" d="M971.38,591.78h-3.56l-1.46-7.22-1.16,7.22h-4.74L958,584.56l-.31,7.22h-6.17s1.22-15.35,19.84-13.44,17.47,17.47,17.47,17.47,1.49,4.06-6.62,13.68a52.42,52.42,0,0,0,3.41-9.08,2.35,2.35,0,0,0-4.41-1.56L978,605.6S978.63,591.78,971.38,591.78Z"/><path class="cls-2" d="M982.23,610.05a.59.59,0,0,1-.31-.09.57.57,0,0,1-.19-.71,52.38,52.38,0,0,0,3.37-9,1.8,1.8,0,0,0-3.37-1.2l-3.21,6.76a.55.55,0,0,1-1-.26c0-.09.33-8.49-2.92-11.88a4.2,4.2,0,0,0-3.17-1.37h-3.56a.55.55,0,0,1-.54-.44l-.86-4.23-.67,4.21a.56.56,0,0,1-.55.46h-4.74a.54.54,0,0,1-.52-.37l-1.49-4.41-.18,4.25a.56.56,0,0,1-.56.53h-6.17a.55.55,0,0,1-.55-.59,16.24,16.24,0,0,1,5.5-10.35c3.64-3,8.68-4.24,15-3.6,18.13,1.87,18,16.56,18,18,.2.78.8,5.14-6.75,14.1A.56.56,0,0,1,982.23,610.05Zm1.08-13.11a3.17,3.17,0,0,1,1,.18,2.83,2.83,0,0,1,1.85,3.42,40.08,40.08,0,0,1-1.67,5.1c4.7-6.67,3.83-9.62,3.81-9.65a.83.83,0,0,1,0-.22c.05-.61.89-15-17-16.88-6-.61-10.72.52-14.12,3.35a15.34,15.34,0,0,0-5,9h5l.29-6.69A.56.56,0,0,1,958,584a.57.57,0,0,1,.6.37l2.31,6.85h3.87l1.08-6.76a.55.55,0,0,1,.54-.46.58.58,0,0,1,.55.44l1.37,6.78h3.11a5.28,5.28,0,0,1,4,1.71c2.44,2.54,3.06,7.35,3.2,10.26l2.18-4.59A2.78,2.78,0,0,1,983.31,596.94Z"/><path class="cls-2" d="M975.69,704.79a39.57,39.57,0,0,1-9-1.08c-8.13-1.88-14.74-8.5-19.1-19.14a.55.55,0,1,1,1-.42c4.23,10.29,10.56,16.69,18.32,18.48,15.45,3.58,25.47-2.58,34-9.77a.56.56,0,0,1,.78.07.55.55,0,0,1-.07.78C994.66,699.59,986.7,704.79,975.69,704.79Z"/><path class="cls-2" d="M976.57,693.42c-4.31,0-7.93-2.25-10.76-6.68-9.47-14.84-6.84-25.68-4.53-35.24,2-8.31,3.75-15.48-2.48-23.79a.55.55,0,0,1,.11-.77.57.57,0,0,1,.78.11c6.53,8.73,4.65,16.49,2.67,24.71-2.27,9.34-4.83,19.94,4.38,34.38q4.07,6.36,10.24,6.17c10.51-.38,23-14.8,30.62-28.92a.55.55,0,0,1,.75-.22.56.56,0,0,1,.23.75C1000.76,678.32,988,693,977,693.41Z"/><path class="cls-2" d="M978.51,778.93c-16.33,0-30.85-4.88-40.88-11.07a.55.55,0,1,1,.58-.94c17.36,10.72,48.39,17.45,78.72,1.13a.56.56,0,0,1,.75.23.55.55,0,0,1-.22.75A81.67,81.67,0,0,1,978.51,778.93Z"/><path class="cls-2" d="M981.42,758.28c-5.52,0-13.24-3.41-21.29-7-6.24-2.76-12.7-5.61-18.58-7.13a.55.55,0,0,1,.27-1.07c6,1.54,12.47,4.41,18.75,7.19,10.35,4.57,20.12,8.89,24.79,5.91,2-1.27,3-3.81,3-7.76.23-14.32-19.11-17.58-36.18-20.46-2.75-.46-5.35-.9-7.87-1.38a.56.56,0,1,1,.21-1.09c2.51.48,5.1.92,7.85,1.38,17.5,3,37.34,6.29,37.09,21.56-.07,4.36-1.24,7.2-3.56,8.68A8.23,8.23,0,0,1,981.42,758.28Z"/><path class="cls-2" d="M1006.51,731.92c-6,0-12.59-2-19.47-5.91-15.78-9-29.65-16.71-39.48-20.13a.55.55,0,0,1,.36-1c9.92,3.44,23.84,11.19,39.67,20.21,6.83,3.9,13.27,5.83,19.25,5.76h0a.56.56,0,0,1,.56.55.56.56,0,0,1-.55.56Z"/><path class="cls-2" d="M973.76,877.82c-17.78,0-35.81-8.56-49.86-24.08a.55.55,0,0,1,0-.78.54.54,0,0,1,.78,0c16.65,18.39,38.95,26.86,59.65,22.65,12.28-2.51,19-5.44,21-9.24,1.54-2.87.25-6-1.12-9.4-1.55-3.83-3.16-7.78-1.11-11.93,2.63-5.33,10.8-9.7,25.7-13.78,1.79-.49,3.61-.9,5.56-1.26a.55.55,0,0,1,.64.44.54.54,0,0,1-.44.64c-1.92.36-3.7.76-5.46,1.25-14.38,3.93-22.56,8.25-25,13.2-1.83,3.7-.32,7.42,1.14,11,1.41,3.45,2.85,7,1.07,10.34-2.2,4.11-9.11,7.22-21.74,9.8A54.14,54.14,0,0,1,973.76,877.82Z"/><path class="cls-2" d="M967.62,846.06A3.55,3.55,0,0,1,967,846c-4-.84-7.29-9.71-11.43-20.93-5.13-13.89-11.51-31.18-21.17-36.54a.56.56,0,0,1,.54-1c10,5.56,16.47,23.07,21.66,37.13,3.71,10,7.2,19.51,10.63,20.23a2.92,2.92,0,0,0,2.64-1.17c4.66-4.86,1.9-15-.54-23.9-2.18-8-4.06-14.85-.7-17.43s12.07.12,27.75,9.19c11.32,6.54,22.73,6.93,33,1.15a.57.57,0,0,1,.76.21.55.55,0,0,1-.22.75c-10.64,6-22.44,5.59-34.11-1.15C981,804,972.3,801,969.28,803.29c-2.76,2.13-.89,9,1.1,16.27,2.51,9.21,5.36,19.65.27,25A4.27,4.27,0,0,1,967.62,846.06Z"/><path class="cls-2" d="M987.86,896.82a.56.56,0,0,1-.33-1c12.69-9.47,28.67-11.71,47.49-6.68a34.47,34.47,0,0,0,16,.78.56.56,0,0,1,.23,1.09,35.83,35.83,0,0,1-16.55-.8c-18.48-5-34.14-2.76-46.55,6.5A.55.55,0,0,1,987.86,896.82Z"/><path class="cls-2" d="M931.5,904.22a.56.56,0,0,1-.31-.09,70.89,70.89,0,0,1-13.46-11.34.55.55,0,1,1,.82-.74,70,70,0,0,0,13.25,11.16.54.54,0,0,1,.16.76A.56.56,0,0,1,931.5,904.22Z"/><path class="cls-2" d="M982.53,666h0c-1.59,0-2.95-1.53-4.26-4.79-5.14-12.76,5.34-27.87,15-38.3a.57.57,0,0,1,.79,0,.55.55,0,0,1,0,.78c-9.47,10.2-19.74,24.92-14.82,37.14,1.08,2.67,2.2,4.09,3.24,4.09h0c2.57,0,5.76-7.71,8.85-15.17,2.77-6.68,5.9-14.24,9.5-19a.55.55,0,0,1,.89.66c-3.52,4.67-6.62,12.17-9.36,18.78C988.74,659,985.84,666,982.53,666Z"/><polygon class="cls-2" points="970.48 964.81 976.09 971.66 943.74 971.66 970.48 964.81"/><path class="cls-2" d="M976.09,972.21H943.74a.55.55,0,0,1-.14-1.08l26.74-6.86a.55.55,0,0,1,.57.19l5.61,6.85a.57.57,0,0,1,.07.59A.56.56,0,0,1,976.09,972.21Zm-28-1.1h26.8l-4.64-5.68Z"/><polygon class="cls-2" points="1011.64 964.81 1017.25 971.66 984.9 971.66 1011.64 964.81"/><path class="cls-2" d="M1017.25,972.21H984.9a.55.55,0,0,1-.13-1.08l26.74-6.86a.53.53,0,0,1,.56.19l5.61,6.85a.55.55,0,0,1,.07.59A.54.54,0,0,1,1017.25,972.21Zm-28-1.1h26.8l-4.65-5.68Z"/><path class="cls-1" d="M998.24,627.31s-19.35,13.36-2.18,38.17l8.26,14.63-50.4-12.32-1.51-12-3,12-23.2,6.41s12,12.21,25.38,7.93l65.92,22c12.47,4.17,23.27-9.61,16.25-20.72Z"/><path class="cls-2" d="M1022,705.48a14.72,14.72,0,0,1-4.69-.77l-65.75-22c-13.48,4.18-25.65-8-25.77-8.12a.56.56,0,0,1-.14-.54.59.59,0,0,1,.39-.39l22.88-6.32,3-11.64a.52.52,0,0,1,.57-.42.55.55,0,0,1,.51.48l1.46,11.58,48.79,11.93-7.63-13.52c-5.87-8.48-8.17-16.6-6.8-24.1a24.33,24.33,0,0,1,9.15-14.8.58.58,0,0,1,.43-.08.58.58,0,0,1,.35.24l35.47,56.15a14.56,14.56,0,0,1-12.2,22.32Zm-70.44-23.9.18,0,65.92,22a13.43,13.43,0,0,0,15.61-19.91L998.1,628.11c-2.88,2.24-16.94,14.87-1.59,37l8.29,14.68a.53.53,0,0,1,0,.6.54.54,0,0,1-.57.21l-50.41-12.32a.56.56,0,0,1-.41-.47l-1.14-9.07-2.33,9.14a.55.55,0,0,1-.39.39l-22.25,6.15c2.73,2.44,13,10.68,24.11,7.14A.51.51,0,0,1,951.54,681.58Z"/><line class="cls-1" x1="1013.47" y1="681.92" x2="1004.32" y2="680.11"/><path class="cls-2" d="M1013.47,682.47h-.11l-9.14-1.81a.56.56,0,0,1-.44-.65.55.55,0,0,1,.65-.43l9.15,1.81a.55.55,0,0,1-.11,1.09Z"/><path class="cls-1" d="M271.6,971.64S77.31,481.71,222.35,474.8c136.71-6.51,104.42,496.84,104.42,496.84Z"/><path class="cls-2" d="M326.77,972.2H271.6a.57.57,0,0,1-.52-.35c-.37-1-37.87-95.87-67.29-201.34-17.29-62-28.45-115.38-33.17-158.79-5.91-54.36-1.69-93.11,12.56-115.19,9-14,22.18-21.47,39.14-22.28,15.76-.75,30.08,5.28,42.52,17.93,20,20.34,35.73,58.22,46.74,112.6,8.8,43.45,14.63,97.48,17.34,160.6,4.61,107.46-1.53,205.32-1.6,206.3A.56.56,0,0,1,326.77,972.2ZM272,971.09h54.28c.48-7.84,6-102.31,1.56-205.67-2.7-63.06-8.53-117-17.31-160.43-11-54.16-26.6-91.85-46.45-112-12.21-12.42-26.25-18.35-41.68-17.61-16.58.79-29.46,8.12-38.26,21.77C170,519,165.84,557.5,171.72,611.59c4.72,43.35,15.86,96.72,33.13,158.61C233.36,872.39,269.45,964.67,272,971.09Z"/><line class="cls-1" x1="271.6" y1="971.64" x2="240.22" y2="546.58"/><path class="cls-2" d="M271.6,972.2a.55.55,0,0,1-.55-.51L239.66,546.62a.56.56,0,0,1,.51-.59.56.56,0,0,1,.6.51L272.15,971.6a.57.57,0,0,1-.51.6Z"/><path class="cls-1" d="M286.22,971.64S249.75,697.13,393.74,704c135.78,6.49-52.34,267.64-52.34,267.64Z"/><path class="cls-2" d="M341.4,972.2H286.22a.57.57,0,0,1-.55-.48,626.35,626.35,0,0,1-3.68-95c1.89-47.27,10.94-111,43.31-146.23,17.7-19.26,40.74-28.35,68.46-27,22.41,1.07,37.44,9.21,44.67,24.2,13.23,27.42,1,76.89-36.39,147a966.93,966.93,0,0,1-60.2,97.3A.55.55,0,0,1,341.4,972.2Zm-54.69-1.11h54.4a968.39,968.39,0,0,0,60-97c25.57-48,52.64-112.27,36.36-146-7-14.6-21.74-22.53-43.72-23.57-27.41-1.31-50.13,7.66-67.59,26.66-32.15,35-41.14,98.44-43,145.52A626.37,626.37,0,0,0,286.71,971.09Z"/><path class="cls-1" d="M233.16,971.64S-22,765.68,109.64,704.39,288.33,971.64,288.33,971.64Z"/><path class="cls-2" d="M288.33,972.2H233.16a.56.56,0,0,1-.35-.13,897.45,897.45,0,0,1-84.29-79.54c-37.93-41.13-82-99.26-76.71-142.71,2.45-20,15.1-35.46,37.6-45.93,22.27-10.38,43.61-10.2,63.41.53,43.61,23.61,72.84,95,89.69,150.77a896,896,0,0,1,26.37,116.38.55.55,0,0,1-.55.63Zm-55-1.11h54.33A897.19,897.19,0,0,0,261.45,855.5C244.66,800,215.57,728.83,172.3,705.39c-19.48-10.55-40.49-10.72-62.43-.5-22.13,10.3-34.56,25.47-37,45.07-2.9,23.74,8,67.62,76.41,141.81A899,899,0,0,0,233.36,971.09Z"/><line class="cls-1" x1="257.85" y1="972.15" x2="137.5" y2="752.67"/><path class="cls-2" d="M257.85,972.71a.56.56,0,0,1-.48-.29L137,752.94a.55.55,0,1,1,1-.53L258.34,971.89a.56.56,0,0,1-.49.82Z"/><line class="cls-1" x1="292.52" y1="971.13" x2="384.07" y2="752.16"/><path class="cls-2" d="M292.52,971.69a.54.54,0,0,1-.21-.05.55.55,0,0,1-.3-.72l91.55-219a.56.56,0,0,1,.72-.3.55.55,0,0,1,.3.73L293,971.35A.55.55,0,0,1,292.52,971.69Z"/><path class="cls-2" d="M712.57,201.82V938.2c0,18.54-15.81,33.57-35.28,33.57H350.22c-19.48,0-35.28-15-35.28-33.57V201.82c0-18.54,15.8-33.56,35.28-33.56H677.29C696.76,168.26,712.57,183.28,712.57,201.82Z"/><path class="cls-2" d="M677.29,972.32H350.22c-19.76,0-35.84-15.31-35.84-34.12V201.82c0-18.81,16.08-34.12,35.84-34.12H677.29c19.76,0,35.83,15.31,35.83,34.12V938.2C713.12,957,697.05,972.32,677.29,972.32ZM350.22,168.81c-19.15,0-34.73,14.81-34.73,33V938.2c0,18.2,15.58,33,34.73,33H677.29c19.15,0,34.72-14.81,34.72-33V201.82c0-18.2-15.57-33-34.72-33Z"/><path class="cls-1" d="M672,217.64V931.37c0,18-14.19,32.53-31.68,32.53H346.61c-17.48,0-31.67-14.56-31.67-32.53V217.64c0-18,14.19-32.53,31.67-32.53h62.75c0,13.35,10.53,24.18,23.54,24.18H554a23.13,23.13,0,0,0,16.65-7.08,24.45,24.45,0,0,0,6.9-17.1h62.74C657.77,185.11,672,199.67,672,217.64Z"/><path class="cls-2" d="M640.28,964.46H346.61c-17.77,0-32.23-14.85-32.23-33.09V217.64c0-18.24,14.46-33.08,32.23-33.08h63.3v.55c0,13,10.31,23.63,23,23.63H554a22.56,22.56,0,0,0,16.26-6.92A23.78,23.78,0,0,0,577,185.11v-.55h63.29c17.77,0,32.23,14.84,32.23,33.08V931.37C672.51,949.61,658.05,964.46,640.28,964.46ZM346.61,185.66c-17.16,0-31.12,14.35-31.12,32V931.37c0,17.63,14,32,31.12,32H640.28c17.17,0,31.13-14.35,31.13-32V217.64c0-17.63-14-32-31.13-32H578.09A24.9,24.9,0,0,1,571,202.59a23.63,23.63,0,0,1-17,7.26H432.9c-13.11,0-23.8-10.8-24.09-24.19Z"/><rect class="cls-2" x="343.5" y="538.49" width="296.7" height="61.85"/><path class="cls-2" d="M640.21,600.9H343.5a.56.56,0,0,1-.55-.56V538.49a.55.55,0,0,1,.55-.55H640.21a.55.55,0,0,1,.55.55v61.85A.56.56,0,0,1,640.21,600.9Zm-296.15-1.11h295.6V539H344.06Z"/><path class="cls-1" d="M677.29,965a1.09,1.09,0,0,1-.92-.49,1.12,1.12,0,0,1,.3-1.54c.17-.11,16.33-11.14,16.33-30.59V286.27a1.11,1.11,0,1,1,2.21,0V932.39c0,20.66-16.6,32-17.31,32.43A1.07,1.07,0,0,1,677.29,965Z"/><rect class="cls-2" x="314.94" y="835.15" width="357.02" height="1.11"/><rect class="cls-1" x="570.86" y="931.95" width="69.35" height="20.04" rx="8.14"/><path class="cls-2" d="M631.21,952.54H579.86a9.56,9.56,0,0,1-9.55-9.55v-2a9.56,9.56,0,0,1,9.55-9.55h51.35a9.56,9.56,0,0,1,9.55,9.55v2A9.56,9.56,0,0,1,631.21,952.54Zm-51.35-20a8.46,8.46,0,0,0-8.45,8.45v2a8.45,8.45,0,0,0,8.45,8.44h51.35a8.45,8.45,0,0,0,8.45-8.44v-2a8.46,8.46,0,0,0-8.45-8.45Z"/><rect class="cls-1" x="343.5" y="624.66" width="30.85" height="30.85"/><path class="cls-2" d="M374.35,656.06H343.5a.55.55,0,0,1-.55-.55V624.66a.55.55,0,0,1,.55-.55h30.85a.56.56,0,0,1,.56.55v30.85A.55.55,0,0,1,374.35,656.06ZM344.06,655H373.8V625.21H344.06Z"/><rect class="cls-2" x="343.5" y="676.62" width="30.85" height="30.85"/><path class="cls-2" d="M374.35,708H343.5a.55.55,0,0,1-.55-.55V676.62a.55.55,0,0,1,.55-.55h30.85a.55.55,0,0,1,.56.55v30.85A.56.56,0,0,1,374.35,708Zm-30.29-1.11H373.8V677.17H344.06Z"/><rect class="cls-1" x="343.5" y="728.57" width="30.85" height="30.85"/><path class="cls-2" d="M374.35,760H343.5a.56.56,0,0,1-.55-.56V728.57a.55.55,0,0,1,.55-.55h30.85a.56.56,0,0,1,.56.55v30.85A.56.56,0,0,1,374.35,760Zm-30.29-1.11H373.8V729.13H344.06Z"/><rect class="cls-1" x="343.5" y="780.53" width="30.85" height="30.85"/><path class="cls-2" d="M374.35,811.93H343.5a.55.55,0,0,1-.55-.55V780.53a.55.55,0,0,1,.55-.55h30.85a.56.56,0,0,1,.56.55v30.85A.55.55,0,0,1,374.35,811.93Zm-30.29-1.1H373.8V781.08H344.06Z"/><rect class="cls-1" x="405.33" y="684.6" width="234.88" height="14.88"/><path class="cls-2" d="M640.76,700h-236v-16h236Zm-234.88-1.11H639.66V685.16H405.88Z"/><rect class="cls-1" x="405.33" y="736.56" width="234.88" height="14.88"/><path class="cls-2" d="M640.76,752h-236V736h236Zm-234.88-1.1H639.66V737.11H405.88Z"/><rect class="cls-1" x="405.33" y="788.51" width="234.88" height="14.88"/><path class="cls-2" d="M640.76,804h-236V788h236Zm-234.88-1.11H639.66V789.07H405.88Z"/><rect class="cls-1" x="405.33" y="632.65" width="234.88" height="14.88"/><path class="cls-2" d="M640.76,648.08h-236v-16h236ZM405.88,647H639.66V633.2H405.88Z"/><rect class="cls-1" x="343.5" y="229.38" width="250.92" height="25.17" rx="11.38"/><path class="cls-2" d="M581.84,255.1H356.09a13.14,13.14,0,1,1,0-26.27H581.84a13.14,13.14,0,1,1,0,26.27ZM356.09,229.93a12,12,0,0,0,0,24.07H581.84a12,12,0,0,0,0-24.07Z"/><rect class="cls-1" x="615.04" y="229.38" width="25.17" height="25.17" rx="11.38"/><path class="cls-2" d="M627.62,255.1A13.14,13.14,0,1,1,640.76,242,13.15,13.15,0,0,1,627.62,255.1Zm0-25.17a12,12,0,1,0,12,12A12,12,0,0,0,627.62,229.93Z"/><path class="cls-1" d="M508.54,435.19A149.67,149.67,0,1,1,358.87,285.52V435.19Z"/><path class="cls-2" d="M358.87,585.41C276,585.41,208.65,518,208.65,435.19S276,285,358.87,285a.55.55,0,0,1,.55.55V434.64H508.54a.55.55,0,0,1,.55.55C509.09,518,441.7,585.41,358.87,585.41Zm-.55-299.34c-82,.31-148.57,67.08-148.57,149.12,0,82.22,66.9,149.12,149.12,149.12,82,0,148.81-66.6,149.11-148.56H358.87a.55.55,0,0,1-.55-.56Z"/><path class="cls-2" d="M529.56,414.17H379.89V264.5A149.67,149.67,0,0,1,529.56,414.17Z"/><path class="cls-2" d="M529.56,414.72H379.89a.55.55,0,0,1-.55-.55V264.5a.55.55,0,0,1,.55-.55c82.83,0,150.22,67.39,150.22,150.22A.55.55,0,0,1,529.56,414.72Zm-149.11-1.1H529c-.3-81.79-66.77-148.27-148.55-148.57Z"/><path class="cls-1" d="M213.74,471.77l145.13-36.58L282.11,563.68A149.19,149.19,0,0,1,213.74,471.77Z"/><path class="cls-2" d="M282.11,564.24a.6.6,0,0,1-.28-.08,149.2,149.2,0,0,1-68.62-92.25.54.54,0,0,1,.4-.67l145.12-36.59a.56.56,0,0,1,.58.21.54.54,0,0,1,0,.61L282.59,564A.57.57,0,0,1,282.11,564.24Zm-67.69-92.07a148.07,148.07,0,0,0,67.5,90.75l75.79-126.87Z"/><rect class="cls-1" x="314.94" y="835.7" width="45.56" height="45.56"/><path class="cls-2" d="M361.05,881.82H314.38V835.15h46.67Zm-45.56-1.11H360V836.25H315.49Z"/><rect class="cls-1" x="359.43" y="835.7" width="45.56" height="45.56"/><path class="cls-2" d="M405.55,881.82H358.88V835.15h46.67ZM360,880.71h44.46V836.25H360Z"/><rect class="cls-1" x="403.93" y="835.7" width="45.56" height="45.56"/><path class="cls-2" d="M450,881.82H403.37V835.15H450Zm-45.56-1.11h44.46V836.25H404.48Z"/><rect class="cls-1" x="448.42" y="835.7" width="45.56" height="45.56"/><path class="cls-2" d="M494.54,881.82H447.87V835.15h46.67ZM449,880.71h44.46V836.25H449Z"/><rect class="cls-1" x="492.91" y="835.7" width="45.56" height="45.56"/><path class="cls-2" d="M539,881.82H492.36V835.15H539Zm-45.56-1.11h44.45V836.25H493.47Z"/><rect class="cls-1" x="537.41" y="835.7" width="45.56" height="45.56"/><path class="cls-2" d="M583.52,881.82H536.85V835.15h46.67ZM538,880.71h44.46V836.25H538Z"/><rect class="cls-1" x="581.9" y="835.7" width="45.56" height="45.56"/><path class="cls-2" d="M628,881.82H581.35V835.15H628Zm-45.57-1.11h44.46V836.25H582.45Z"/><rect class="cls-1" x="626.4" y="835.7" width="45.56" height="45.56"/><path class="cls-2" d="M672.51,881.82H625.84V835.15h46.67ZM627,880.71h44.46V836.25H627Z"/><polygon class="cls-1" points="819.95 865.23 820.06 965.04 826.22 965.04 833.59 864.59 819.95 865.23"/><path class="cls-2" d="M826.22,965.6h-6.16a.55.55,0,0,1-.55-.55l-.11-99.82a.55.55,0,0,1,.52-.55l13.64-.64a.5.5,0,0,1,.42.17.54.54,0,0,1,.16.42l-7.36,100.45A.57.57,0,0,1,826.22,965.6Zm-5.6-1.11h5.09L833,865.17l-12.49.59Z"/><polygon class="cls-2" points="796.04 971.77 826.77 971.77 826.52 965.04 820.36 965.04 796.04 971.77"/><path class="cls-2" d="M826.77,972.32H796a.54.54,0,0,1-.54-.48.56.56,0,0,1,.4-.61l24.31-6.72.15,0h6.16a.55.55,0,0,1,.55.53l.25,6.73a.54.54,0,0,1-.15.4A.56.56,0,0,1,826.77,972.32Zm-26.65-1.11H826.2L826,965.6h-5.56Z"/><polygon class="cls-1" points="891.19 965.04 893.01 864.91 871.48 865.92 885.03 965.04 891.19 965.04"/><path class="cls-2" d="M891.19,965.6H885a.56.56,0,0,1-.55-.48L870.93,866a.58.58,0,0,1,.12-.42.54.54,0,0,1,.4-.2l21.54-1a.55.55,0,0,1,.57.56l-1.82,100.13A.55.55,0,0,1,891.19,965.6Zm-5.68-1.11h5.13l1.81-99-20.34,1Z"/><polygon class="cls-3" points="811.41 957.32 831.58 957.32 851.62 725.16 873.99 957.73 895.76 957.73 892.51 845.84 892.51 699.27 811.03 699.27 811.41 957.32"/><path class="cls-2" d="M895.76,958.28H874a.55.55,0,0,1-.55-.5L851.65,731.25,832.13,957.36a.55.55,0,0,1-.55.51H811.41a.56.56,0,0,1-.56-.55l-.38-258.05a.52.52,0,0,1,.17-.39.55.55,0,0,1,.39-.16h81.48a.55.55,0,0,1,.55.55V845.84l3.26,111.87a.62.62,0,0,1-.16.41A.58.58,0,0,1,895.76,958.28Zm-21.27-1.1h20.7L892,845.85v-146H811.58L812,956.76h19.11l20-231.64a.55.55,0,0,1,.55-.51h0a.56.56,0,0,1,.55.5Z"/><path class="cls-2" d="M811,652.72v46.55h0a91.57,91.57,0,0,0,62.41,5.19l19.07-5.19V652.72a40.74,40.74,0,0,0-81.23-4.54A40,40,0,0,0,811,652.72Z"/><path class="cls-2" d="M849.4,708.22a92.23,92.23,0,0,1-38.6-8.45.55.55,0,0,1-.33-.5V652.72a41.3,41.3,0,0,1,82.6,0v46.55a.55.55,0,0,1-.41.53L873.59,705A92.46,92.46,0,0,1,849.4,708.22Zm-37.82-9.3a91.23,91.23,0,0,0,61.72,5L892,698.85V652.72a40.19,40.19,0,0,0-80.13-4.48,39.06,39.06,0,0,0-.25,4.48Z"/><polygon class="cls-2" points="861.01 971.77 891.73 971.77 891.48 965.04 885.32 965.04 861.01 971.77"/><path class="cls-2" d="M891.73,972.32H861a.56.56,0,0,1-.15-1.09l24.32-6.72.14,0h6.16a.57.57,0,0,1,.56.53l.25,6.73a.55.55,0,0,1-.16.4A.54.54,0,0,1,891.73,972.32Zm-26.65-1.11h26.08L891,965.6H885.4Z"/><path class="cls-1" d="M851.19,624.41l5.65-5.37-6.57-25.86-12-3.78.89,25.89-.45,2.16A7.47,7.47,0,0,0,851.19,624.41Z"/><path class="cls-2" d="M846.08,627.05a8,8,0,0,1-4-1,7.9,7.9,0,0,1-3.94-8.67l.45-2.09-.89-25.82a.55.55,0,0,1,.72-.54l12,3.77a.58.58,0,0,1,.37.39l6.56,25.87a.55.55,0,0,1-.15.53l-5.65,5.37h0A8,8,0,0,1,846.08,627.05Zm-7.21-36.88.87,25.1a.68.68,0,0,1,0,.14l-.45,2.15A6.91,6.91,0,0,0,850.8,624l5.42-5.14-6.41-25.25Zm12.32,34.24h0Z"/><circle class="cls-1" cx="844.55" cy="592.61" r="17.97"/><path class="cls-2" d="M844.56,611.13a18.56,18.56,0,0,1-17.77-13.29h0a18.52,18.52,0,1,1,23,12.53A18.17,18.17,0,0,1,844.56,611.13Zm-16.71-13.61a17.41,17.41,0,1,0,11.79-21.62,17.43,17.43,0,0,0-11.79,21.62Z"/><path class="cls-2" d="M851.62,725.72a.55.55,0,0,1-.3-.09l-5.78-3.75a.54.54,0,0,1-.16-.76.55.55,0,0,1,.76-.16l5.78,3.74a.55.55,0,0,1,.16.77A.54.54,0,0,1,851.62,725.72Z"/><line class="cls-1" x1="882.25" y1="702.07" x2="887.59" y2="957.73"/><path class="cls-2" d="M887.59,958.28a.55.55,0,0,1-.55-.54l-5.35-255.66a.56.56,0,0,1,.54-.57h0a.55.55,0,0,1,.55.54l5.34,255.67a.54.54,0,0,1-.54.56Z"/><path class="cls-1" d="M845.09,659.14l-10.44,19.7s-21.65,39.6-44.23,24c-8.12-5.62-13.57-26.77,4-48.76A241.57,241.57,0,0,1,826,621.84l-13.79,51.45-1.47,5.49C821.75,651.73,845.09,659.14,845.09,659.14Z"/><path class="cls-2" d="M801.41,707a19.61,19.61,0,0,1-11.3-3.74c-3.77-2.6-6.58-8-7.53-14.43-1-6.58-.78-19.88,11.37-35.13a244.09,244.09,0,0,1,31.73-32.31.55.55,0,0,1,.88.57L812.84,673.2c11.76-20.84,32.19-14.65,32.41-14.58a.54.54,0,0,1,.35.31.55.55,0,0,1,0,.47l-10.44,19.7a88.18,88.18,0,0,1-8.44,12.21c-4.79,5.81-12.29,13.16-20.76,15.17A19.58,19.58,0,0,1,801.41,707ZM825,623.39a244,244,0,0,0-30.23,31c-11.89,14.92-12.08,27.88-11.14,34.27.91,6.14,3.55,11.26,7.06,13.69a18.09,18.09,0,0,0,14.94,3c15.7-3.72,28.37-26.6,28.49-26.84l10.12-19.08c-3.85-1-23.22-4.59-33,19.49a.55.55,0,0,1-1-.35Z"/><path class="cls-2" d="M807.36,579.43s12.4,31,47.1,10.26l4.5,6s-1.25-8.34,1.88-5c4,4.25-1.49,12.07-1.49,12.07s20.83-20.09,2-31.1S807.36,579.43,807.36,579.43Z"/><path class="cls-2" d="M859.35,603.35a.58.58,0,0,1-.36-.14.55.55,0,0,1-.09-.73c.05-.08,5.16-7.51,1.54-11.38-.57-.61-.81-.62-.83-.62h0c-.41.25-.46,2.76-.11,5.16a.54.54,0,0,1-.33.59.55.55,0,0,1-.66-.18l-4.19-5.63C843,597.11,832.77,599,824,596.05c-12.12-4.09-17.12-16.29-17.17-16.42a.54.54,0,0,1,.25-.69,120.9,120.9,0,0,1,20-8c10.26-3,24.57-5.47,34.48.31,4.84,2.82,7.56,6.49,8.09,10.91,1.22,10.17-9.49,20.63-9.94,21.07A.59.59,0,0,1,859.35,603.35Zm.26-14a2.64,2.64,0,0,1,1.64,1c2.33,2.5,1.72,6,.67,8.73,3.1-3.86,7.42-10.51,6.66-16.82-.49-4.06-3-7.45-7.54-10.08-17.23-10-48.8,5.39-53,7.51,1,2.22,6,11.85,16.3,15.33,8.54,2.88,18.56.93,29.8-5.79a.56.56,0,0,1,.73.14l3.28,4.41c-.12-1.77,0-3.82.95-4.29A1.17,1.17,0,0,1,859.61,589.38Z"/><path class="cls-2" d="M826,621.84l-13.79,51.45-17.86-19.22A241.57,241.57,0,0,1,826,621.84Z"/><path class="cls-2" d="M812.24,673.85a.55.55,0,0,1-.4-.18L794,654.44a.55.55,0,0,1,0-.72,244.09,244.09,0,0,1,31.73-32.31.55.55,0,0,1,.88.57l-13.79,51.46a.55.55,0,0,1-.4.39ZM795.11,654,812,672.18,825,623.39A244.24,244.24,0,0,0,795.11,654Z"/><rect class="cls-1" x="816.52" y="631.97" width="40.53" height="57.63" transform="translate(-194.26 389.12) rotate(-23.54)"/><path class="cls-2" d="M829.71,695.85a.56.56,0,0,1-.51-.34l-23-52.83a.55.55,0,0,1,.29-.72l37.15-16.19a.54.54,0,0,1,.73.29l23,52.83a.56.56,0,0,1,0,.42.54.54,0,0,1-.3.31L829.93,695.8A.59.59,0,0,1,829.71,695.85Zm-22.28-53.1L830,694.57l36.14-15.75L843.57,627Z"/><path class="cls-1" d="M905.17,704.81C882,715.31,844,681.08,844,681.08s-17.08-11.47-8.88-23.5l17,7.75,4.06-6.36-2.63-10.46,9.21,11.32-1.11,9,24,3.4-.53-5-4.55-43.29a223.35,223.35,0,0,1,24.5,31.75h0C916.69,674.42,924.31,696.16,905.17,704.81Z"/><path class="cls-2" d="M895.32,707.33c-8.34,0-18.41-3.35-29.73-10a151.35,151.35,0,0,1-22-15.87c-.32-.22-9.47-6.43-11.06-14.68a12.3,12.3,0,0,1,2.1-9.54.55.55,0,0,1,.68-.19l16.56,7.55,3.67-5.75L853,648.65a.56.56,0,0,1,.29-.63.54.54,0,0,1,.67.15l9.21,11.31a.52.52,0,0,1,.12.41l-1,8.46,22.8,3.23L880,624a.55.55,0,0,1,.32-.56.55.55,0,0,1,.63.12,226.29,226.29,0,0,1,24.57,31.84.15.15,0,0,1,0,.07c10,16.19,13.68,29,10.91,38.1-1.59,5.21-5.32,9.18-11.1,11.79h0A24.18,24.18,0,0,1,895.32,707.33Zm-60-49.05a11.12,11.12,0,0,0-1.67,8.32c1.5,7.79,10.56,14,10.65,14,.44.39,38,33.91,60.65,23.69,5.47-2.48,9-6.21,10.49-11.1,2.68-8.79-1-21.32-10.82-37.26a.25.25,0,0,1,0-.07A223.29,223.29,0,0,0,881.3,625.5l4.91,46.67a.55.55,0,0,1-.62.61l-24-3.41a.54.54,0,0,1-.47-.61l1.09-8.77-7.49-9.2,2,8.05a.54.54,0,0,1-.07.43l-4.06,6.36a.54.54,0,0,1-.69.2Zm69.86,46.53h0Z"/><rect class="cls-1" x="814.06" y="632.71" width="22.55" height="3.6" transform="translate(-184.72 382.36) rotate(-23.54)"/><path class="cls-2" d="M815.72,641.22a.45.45,0,0,1-.2,0,.55.55,0,0,1-.31-.29l-1.43-3.31a.53.53,0,0,1,.28-.72l20.67-9a.56.56,0,0,1,.73.29l1.44,3.3a.54.54,0,0,1-.29.73l-20.67,9A.54.54,0,0,1,815.72,641.22Zm-.71-3.57,1,2.29,19.65-8.56-1-2.29Z"/><path class="cls-2" d="M905.08,655.65h0l-20,11.53-4.55-43.29A223.35,223.35,0,0,1,905.08,655.65Z"/><path class="cls-2" d="M885.13,667.74a.57.57,0,0,1-.25-.06.56.56,0,0,1-.3-.43L880,624a.55.55,0,0,1,.32-.56.55.55,0,0,1,.63.12,226.29,226.29,0,0,1,24.57,31.84.55.55,0,0,1,.08.29h0a.55.55,0,0,1-.28.48l-19.94,11.53A.53.53,0,0,1,885.13,667.74ZM881.3,625.5l4.3,40.78,18.71-10.82A225.15,225.15,0,0,0,881.3,625.5Z"/><rect class="cls-3" x="874.85" y="744" width="17.98" height="79.94"/><path class="cls-2" d="M892.83,824.49h-18a.55.55,0,0,1-.55-.55V744a.55.55,0,0,1,.55-.55h18a.55.55,0,0,1,.55.55v79.94A.55.55,0,0,1,892.83,824.49Zm-17.43-1.1h16.88V744.55H875.4Z"/><line class="cls-1" x1="894.02" y1="674.51" x2="885.66" y2="672.23"/><path class="cls-2" d="M894,675.06a.32.32,0,0,1-.14,0l-8.36-2.28a.54.54,0,0,1-.39-.67.55.55,0,0,1,.68-.39l8.36,2.28a.55.55,0,0,1-.15,1.08Z"/><polygon class="cls-1" points="1151.48 190 1151.48 393.21 1102.37 427.08 976.24 427.08 976.24 190 1151.48 190"/><path class="cls-2" d="M1102.37,427.63H976.24a.55.55,0,0,1-.55-.55V190a.55.55,0,0,1,.55-.55h175.24a.56.56,0,0,1,.56.55V393.21a.55.55,0,0,1-.24.46l-49.11,33.86A.55.55,0,0,1,1102.37,427.63Zm-125.57-1.1h125.4l48.73-33.61V190.56H976.8Z"/><circle class="cls-1" cx="1001.19" cy="255.3" r="16.25"/><path class="cls-2" d="M1001.19,272.11A16.81,16.81,0,1,1,1018,255.3,16.83,16.83,0,0,1,1001.19,272.11Zm0-32.51a15.7,15.7,0,1,0,15.7,15.7A15.72,15.72,0,0,0,1001.19,239.6Z"/><path class="cls-2" d="M997.43,263.41a2.17,2.17,0,0,1-1.56-.65l-5.9-5.9a2.21,2.21,0,1,1,3.12-3.12l4.34,4.33,18.45-18.45a2.21,2.21,0,0,1,3.13,3.13l-20,20A2.19,2.19,0,0,1,997.43,263.41Z"/><rect class="cls-1" x="1035.01" y="251.19" width="98.94" height="10.01"/><path class="cls-2" d="M1134,261.75H1035a.54.54,0,0,1-.55-.55v-10a.55.55,0,0,1,.55-.55H1134a.55.55,0,0,1,.55.55v10A.54.54,0,0,1,1134,261.75Zm-98.39-1.1h97.84v-8.91h-97.84Z"/><circle class="cls-1" cx="1001.19" cy="297.75" r="16.25"/><path class="cls-2" d="M1001.19,314.55a16.81,16.81,0,1,1,16.81-16.8A16.82,16.82,0,0,1,1001.19,314.55Zm0-32.51a15.71,15.71,0,1,0,15.7,15.71A15.73,15.73,0,0,0,1001.19,282Z"/><path class="cls-2" d="M997.43,305.86a2.21,2.21,0,0,1-1.56-.65l-5.9-5.9a2.21,2.21,0,1,1,3.12-3.13l4.34,4.34,18.45-18.45a2.21,2.21,0,0,1,3.13,3.12l-20,20A2.24,2.24,0,0,1,997.43,305.86Z"/><rect class="cls-1" x="1035.01" y="293.64" width="98.94" height="10.01"/><path class="cls-2" d="M1134,304.2H1035a.55.55,0,0,1-.55-.55v-10a.54.54,0,0,1,.55-.55H1134a.54.54,0,0,1,.55.55v10A.55.55,0,0,1,1134,304.2Zm-98.39-1.11h97.84v-8.9h-97.84Z"/><circle class="cls-1" cx="1001.19" cy="340.19" r="16.25"/><path class="cls-2" d="M1001.19,357A16.81,16.81,0,1,1,1018,340.19,16.83,16.83,0,0,1,1001.19,357Zm0-32.51a15.7,15.7,0,1,0,15.7,15.7A15.72,15.72,0,0,0,1001.19,324.49Z"/><path class="cls-2" d="M997.43,348.3a2.2,2.2,0,0,1-1.56-.64l-5.9-5.9a2.21,2.21,0,1,1,3.12-3.13l4.34,4.34,18.45-18.46a2.21,2.21,0,0,1,3.13,3.13l-20,20A2.23,2.23,0,0,1,997.43,348.3Z"/><rect class="cls-1" x="1035.01" y="336.08" width="98.94" height="10.01"/><path class="cls-2" d="M1134,346.65H1035a.55.55,0,0,1-.55-.56v-10a.55.55,0,0,1,.55-.56H1134a.55.55,0,0,1,.55.56v10A.55.55,0,0,1,1134,346.65Zm-98.39-1.11h97.84v-8.9h-97.84Z"/><circle class="cls-1" cx="1001.19" cy="382.64" r="16.25"/><path class="cls-2" d="M1001.19,399.45A16.81,16.81,0,1,1,1018,382.64,16.83,16.83,0,0,1,1001.19,399.45Zm0-32.51a15.7,15.7,0,1,0,15.7,15.7A15.72,15.72,0,0,0,1001.19,366.94Z"/><path class="cls-2" d="M997.43,390.75a2.17,2.17,0,0,1-1.56-.65l-5.9-5.9a2.21,2.21,0,1,1,3.12-3.12l4.34,4.33L1015.88,367a2.21,2.21,0,0,1,3.13,3.13l-20,20A2.19,2.19,0,0,1,997.43,390.75Z"/><rect class="cls-1" x="1035.01" y="378.53" width="98.94" height="10.01"/><path class="cls-2" d="M1134,389.09H1035a.54.54,0,0,1-.55-.55v-10a.55.55,0,0,1,.55-.55H1134a.55.55,0,0,1,.55.55v10A.54.54,0,0,1,1134,389.09Zm-98.39-1.1h97.84v-8.91h-97.84Z"/><path class="cls-1" d="M1151.48,393.21l-49.11,33.87a60.54,60.54,0,0,0,26.1-46.72l.44-8.49Z"/><path class="cls-2" d="M1102.37,427.63a.53.53,0,0,1-.45-.24.55.55,0,0,1,.14-.77h0a60.36,60.36,0,0,0,25.85-46.28l.44-8.49a.54.54,0,0,1,.34-.48.56.56,0,0,1,.59.11l22.57,21.34a.55.55,0,0,1,.17.45.56.56,0,0,1-.23.41l-49.09,33.85h0A.55.55,0,0,1,1102.37,427.63Zm27-54.53-.38,7.29a61.51,61.51,0,0,1-17.51,39.72l39.1-27Z"/><rect class="cls-2" x="976.24" y="190" width="175.24" height="36.64"/><path class="cls-2" d="M1151.48,227.2H976.24a.55.55,0,0,1-.55-.55V190a.55.55,0,0,1,.55-.55h175.24a.56.56,0,0,1,.56.55v36.65A.56.56,0,0,1,1151.48,227.2ZM976.8,226.09h174.13V190.56H976.8Z"/><rect class="cls-1" x="984.94" y="197.91" width="32.51" height="19.32" rx="7.27"/><path class="cls-2" d="M1009.41,217.78H993a8.6,8.6,0,0,1-8.59-8.59V206a8.6,8.6,0,0,1,8.59-8.59h16.43A8.6,8.6,0,0,1,1018,206v3.24A8.6,8.6,0,0,1,1009.41,217.78ZM993,198.46a7.5,7.5,0,0,0-7.49,7.49v3.24a7.49,7.49,0,0,0,7.49,7.48h16.43a7.48,7.48,0,0,0,7.48-7.48V206a7.49,7.49,0,0,0-7.48-7.49Z"/><rect class="cls-1" x="1035.01" y="204.62" width="98.94" height="5.89"/><path class="cls-2" d="M1134,211.07H1035a.55.55,0,0,1-.55-.56v-5.89a.55.55,0,0,1,.55-.55H1134a.55.55,0,0,1,.55.55v5.89A.55.55,0,0,1,1134,211.07ZM1035.56,210h97.84v-4.78h-97.84Z"/></svg>